<svg width="1113" height="645" viewBox="0 0 1113 645" fill="none" xmlns="http://www.w3.org/2000/svg">
<path opacity="0.2" d="M648.297 645C821.264 645 961.481 641.112 961.481 636.317C961.481 631.521 821.264 627.633 648.297 627.633C475.331 627.633 335.113 631.521 335.113 636.317C335.113 641.112 475.331 645 648.297 645Z" fill="#0B2252"/>
<path d="M522.05 31.4899C520.083 29.5169 517.745 27.952 515.172 26.8854C512.598 25.8187 509.838 25.2712 507.052 25.2743H485.953C484.386 18.112 480.418 11.7006 474.706 7.10348C468.995 2.50641 461.883 0 454.552 0C447.22 0 440.108 2.50641 434.397 7.10348C428.685 11.7006 424.717 18.112 423.15 25.2743H417.483C414.697 25.2733 411.938 25.8214 409.364 26.8871C406.79 27.9528 404.451 29.5154 402.481 31.4854C400.511 33.4555 398.948 35.7945 397.882 38.3687C396.817 40.9429 396.269 43.7018 396.27 46.4879V46.4879C396.267 49.2746 396.813 52.0345 397.878 54.6096C398.943 57.1847 400.506 59.5244 402.476 61.4949C404.447 63.4653 406.786 65.0278 409.361 66.0928C411.937 67.1579 414.696 67.7045 417.483 67.7015H507.052C509.841 67.7065 512.603 67.1614 515.181 66.0975C517.759 65.0336 520.101 63.4717 522.075 61.5012C524.048 59.5307 525.613 57.1904 526.681 54.6142C527.748 52.0381 528.297 49.2766 528.296 46.4879V46.4879C528.296 43.6996 527.743 40.9391 526.671 38.3651C525.599 35.7911 524.029 33.4545 522.05 31.4899V31.4899Z" fill="#E9F3FC"/>
<path d="M1112.02 318.997V439.118C1002.84 420.182 856.029 402.922 684.332 402.922C305.314 402.922 8.04978 487.151 8.04978 487.151C-14.0398 439.994 10.4339 304.174 67.9581 272.35C125.482 240.525 175.458 304.143 220.879 281.437C266.299 258.73 223.804 57.9516 293.553 45.0331C363.303 32.1145 407.23 161.315 492.496 161.315C577.762 161.315 564.858 32.145 664.528 26.973C764.197 21.801 761.569 159.228 821.554 159.228C881.538 159.228 857.202 104.119 951.204 102.504C1045.21 100.889 1071.14 296.983 1111.4 318.669L1112.02 318.997Z" fill="url(#paint0_linear_183_773)"/>
<path d="M260.176 437.297C249.238 436.939 237.386 433.131 237.645 415.612C237.904 398.092 250.647 395.327 251.942 382.196C253.237 369.064 253.321 356.815 260.176 356.686C267.032 356.556 262.69 362.17 265.889 368.256C269.088 374.342 275.273 382.135 274.07 393.514C272.866 404.894 280.971 409.244 280.544 418.552C280.118 427.86 274.298 437.701 260.176 437.297Z" fill="#DAEEFF"/>
<path d="M264.205 392.486C264.161 392.442 264.108 392.407 264.051 392.383C263.993 392.359 263.932 392.347 263.869 392.347C263.807 392.347 263.745 392.359 263.688 392.383C263.63 392.407 263.578 392.442 263.534 392.486C263.447 392.576 263.398 392.696 263.398 392.821C263.398 392.947 263.447 393.067 263.534 393.156C263.534 393.156 266.383 396.02 266.094 405.725C265.842 414.103 261.523 427.098 260.114 431.021C258.827 427.974 257.159 424.592 255.75 421.751C254.805 419.839 253.982 418.179 253.541 417.135C251.911 413.326 254.386 405.298 254.409 405.222C254.445 405.101 254.433 404.97 254.375 404.858C254.316 404.746 254.217 404.66 254.097 404.62C254.037 404.601 253.975 404.594 253.912 404.6C253.85 404.606 253.79 404.623 253.734 404.652C253.679 404.681 253.63 404.721 253.59 404.769C253.551 404.817 253.521 404.873 253.503 404.932C253.396 405.275 250.898 413.372 252.657 417.508C253.114 418.582 253.944 420.25 254.896 422.177C257.456 427.349 261.333 435.165 261.272 438.173C261.188 442.393 260.678 448.441 260.67 448.502C260.66 448.628 260.699 448.754 260.781 448.851C260.862 448.948 260.978 449.008 261.104 449.02H261.15C261.269 449.019 261.382 448.974 261.469 448.894C261.557 448.813 261.611 448.704 261.622 448.586C261.622 448.525 262.14 442.439 262.224 438.196C262.224 436.833 261.607 434.715 260.655 432.316C261.287 430.587 266.749 415.276 267.046 405.725C267.366 395.556 264.334 392.6 264.205 392.486Z" fill="#6AC1FF"/>
<path d="M1070.8 391.945C1061.48 391.664 1051.38 388.396 1051.61 373.428C1051.83 358.461 1062.69 356.137 1063.79 344.948C1064.9 333.758 1064.96 323.331 1070.8 323.224C1076.64 323.117 1072.95 327.893 1075.68 333.088C1078.4 338.283 1083.67 344.917 1082.65 354.614C1081.63 364.311 1088.53 368.028 1088.17 375.942C1087.82 383.856 1082.82 392.303 1070.8 391.945Z" fill="#DAEEFF"/>
<path d="M1074.25 353.738C1074.21 353.701 1074.17 353.671 1074.12 353.65C1074.07 353.63 1074.02 353.62 1073.97 353.62C1073.91 353.62 1073.86 353.63 1073.81 353.65C1073.76 353.671 1073.72 353.701 1073.68 353.738C1073.64 353.776 1073.61 353.82 1073.59 353.869C1073.57 353.918 1073.56 353.971 1073.56 354.024C1073.56 354.077 1073.57 354.129 1073.59 354.178C1073.61 354.227 1073.64 354.272 1073.68 354.309C1073.68 354.309 1076.11 356.747 1075.87 365.027C1075.65 372.179 1071.94 383.247 1070.77 386.591C1069.67 383.986 1068.25 381.106 1067.05 378.692C1066.24 377.054 1065.52 375.645 1065.16 374.754C1063.78 371.501 1065.92 364.661 1065.92 364.592C1065.93 364.542 1065.94 364.489 1065.94 364.436C1065.93 364.383 1065.92 364.331 1065.89 364.285C1065.87 364.238 1065.83 364.196 1065.79 364.163C1065.75 364.129 1065.7 364.104 1065.65 364.09C1065.6 364.073 1065.55 364.067 1065.49 364.072C1065.44 364.076 1065.39 364.091 1065.34 364.116C1065.29 364.141 1065.25 364.175 1065.22 364.216C1065.18 364.257 1065.16 364.305 1065.14 364.356C1065.05 364.646 1062.92 371.547 1064.43 375.074C1064.81 375.988 1065.51 377.404 1066.34 379.05C1068.52 383.46 1071.82 390.125 1071.77 392.715C1071.69 396.31 1071.26 401.467 1071.26 401.52C1071.25 401.574 1071.26 401.628 1071.27 401.679C1071.29 401.731 1071.32 401.778 1071.35 401.82C1071.39 401.861 1071.43 401.895 1071.48 401.919C1071.52 401.943 1071.58 401.958 1071.63 401.962V401.962C1071.73 401.962 1071.83 401.924 1071.91 401.855C1071.98 401.785 1072.03 401.69 1072.03 401.589C1072.03 401.535 1072.48 396.356 1072.55 392.73C1072.4 390.995 1071.94 389.298 1071.21 387.718C1071.75 386.248 1076.42 373.192 1076.66 365.049C1076.94 356.358 1074.36 353.845 1074.25 353.738Z" fill="#6AC1FF"/>
<path d="M343.117 364.356C336.711 364.158 329.756 361.911 329.909 351.621C330.061 341.33 337.526 339.73 338.287 332.029C339.049 324.329 339.087 317.161 343.109 317.085C347.131 317.009 344.587 320.299 346.461 323.872C348.334 327.444 351.96 332.007 351.259 338.679C350.559 345.352 355.304 347.903 355.068 353.365C354.832 358.826 351.404 364.577 343.117 364.356Z" fill="#DAEEFF"/>
<path d="M345.485 338.077C345.432 338.025 345.361 337.996 345.287 337.996C345.213 337.996 345.142 338.025 345.089 338.077C345.063 338.102 345.041 338.132 345.027 338.166C345.013 338.199 345.005 338.235 345.005 338.272C345.005 338.308 345.013 338.344 345.027 338.377C345.041 338.411 345.063 338.441 345.089 338.466C345.089 338.466 346.757 340.149 346.612 345.839C346.468 350.76 343.916 358.377 343.109 360.67C342.347 358.88 341.38 356.907 340.549 355.239C339.993 354.111 339.513 353.144 339.254 352.527C338.302 350.295 339.75 345.588 339.765 345.542C339.782 345.506 339.791 345.466 339.791 345.426C339.791 345.386 339.783 345.346 339.767 345.31C339.751 345.273 339.727 345.24 339.697 345.213C339.667 345.187 339.632 345.167 339.594 345.155C339.555 345.143 339.515 345.139 339.475 345.144C339.435 345.148 339.397 345.162 339.363 345.183C339.329 345.203 339.299 345.231 339.276 345.264C339.254 345.297 339.239 345.335 339.232 345.374C339.171 345.58 337.708 350.326 338.736 352.748C339.003 353.38 339.498 354.355 340.054 355.49C341.578 358.537 343.825 363.107 343.787 364.882C343.741 367.357 343.436 370.907 343.436 370.976C343.433 371.012 343.437 371.049 343.449 371.084C343.46 371.119 343.479 371.151 343.503 371.179C343.527 371.207 343.556 371.229 343.589 371.245C343.622 371.261 343.658 371.271 343.695 371.273V371.273C343.765 371.275 343.832 371.25 343.883 371.203C343.935 371.156 343.965 371.091 343.969 371.021C343.969 370.983 344.274 367.418 344.32 364.928C344.217 363.733 343.908 362.566 343.406 361.477C343.771 360.464 346.986 351.491 347.153 345.885C347.336 339.875 345.561 338.146 345.485 338.077Z" fill="#6AC1FF"/>
<path d="M970.885 467.834C959.688 467.499 947.531 463.569 947.797 445.577C948.064 427.586 961.127 424.783 962.46 411.3C963.793 397.818 963.854 385.318 970.885 385.181C977.915 385.044 973.467 390.803 976.742 397.049C980.018 403.295 986.363 411.27 985.121 422.947C983.879 434.624 992.197 439.08 991.763 448.609C991.329 458.138 985.372 468.276 970.885 467.834Z" fill="#DAEEFF"/>
<path d="M975.031 421.903C974.937 421.815 974.812 421.767 974.683 421.77C974.553 421.774 974.431 421.828 974.342 421.922C974.253 422.016 974.205 422.142 974.209 422.271C974.212 422.4 974.267 422.523 974.361 422.612C974.361 422.612 977.278 425.544 976.981 435.5C976.73 444.1 972.266 457.407 970.888 461.398C969.562 458.26 967.841 454.809 966.409 451.899C965.441 449.934 964.596 448.236 964.124 447.162C962.463 443.254 964.992 435.035 965.022 434.974C965.061 434.85 965.048 434.716 964.988 434.601C964.927 434.486 964.823 434.399 964.699 434.361C964.575 434.323 964.44 434.335 964.325 434.396C964.21 434.457 964.124 434.561 964.086 434.685C963.979 435.035 961.42 443.33 963.225 447.565C963.689 448.67 964.543 450.376 965.51 452.356C968.138 457.688 972.106 465.671 972.045 468.787C971.962 473.105 971.436 479.313 971.428 479.374C971.42 479.503 971.462 479.63 971.546 479.728C971.63 479.827 971.749 479.888 971.878 479.9H971.916C972.038 479.9 972.155 479.855 972.245 479.774C972.336 479.692 972.392 479.579 972.403 479.458C972.403 479.389 972.937 473.159 973.02 468.794C973.02 467.4 972.396 465.229 971.421 462.769C972.061 460.994 977.674 445.303 977.964 435.515C978.269 425.049 975.161 422.025 975.031 421.903Z" fill="#6AC1FF"/>
<path d="M361.552 482.581C355.192 484.241 331.084 483.266 335.654 471.376C340.773 458.153 354.43 469.708 360.296 477.043C358.546 467.147 357.713 457.111 357.805 447.062C353.471 441.852 344.315 408.779 362.375 410.417C385.988 412.565 365.072 443.871 359.625 447.428C359.625 455.045 360.143 470.173 363.594 483.289C364.356 474.956 372.643 451.244 383.688 459.608C399.684 471.734 369.048 486.374 364.401 486.123C365.675 490.637 367.638 494.928 370.221 498.843C371.995 501.38 373.961 504.32 375.994 507.519L376.109 507.641C377.137 498.866 385.325 476.327 396.142 484.508C411.102 495.835 385.371 509.34 378.097 510.878C382.852 518.525 387.109 526.471 390.84 534.667C391.343 526.745 406.889 510.543 413.067 519.806C416.517 524.97 398.29 541.804 392.28 538.033C395.707 546.412 397.764 554.235 397.056 559.94C396.789 562.042 396.408 564.51 395.959 567.222C400.217 562.507 415.603 546.724 420.181 558.942C423.99 569.073 411.292 574.938 405.952 574.938C401.778 574.938 397.353 570.992 395.616 569.263C395.372 570.726 395.118 572.221 394.854 573.75C392.706 586.219 390.132 601.225 390.893 610.251C394.527 603.205 410.751 573.856 420.189 592.732C425.033 602.405 411.3 610.517 405.96 612.292C401.588 613.755 393.773 612.445 391.076 611.927C391.202 612.861 391.406 613.783 391.686 614.684C395.167 625.112 402.182 635.707 402.258 635.814C402.346 635.95 402.395 636.107 402.401 636.269C402.407 636.431 402.369 636.592 402.291 636.734C402.213 636.876 402.098 636.994 401.958 637.076C401.818 637.159 401.659 637.201 401.496 637.2C401.347 637.201 401.199 637.166 401.066 637.097C400.933 637.028 400.82 636.927 400.735 636.804C397.266 631.424 394.249 625.765 391.716 619.886C387.527 619.353 371.424 617.16 366.793 614.075C361.461 610.517 351.902 598.84 359.679 594.506C371.706 587.826 384.327 605.589 389.85 614.829C387.793 607.973 389.614 594.141 391.754 581.184C387.45 582.471 373.473 579.973 368.568 576.72C363.236 573.163 354.034 563.947 359.679 558.935C373.816 546.366 388.761 572.988 392.051 579.379C392.394 577.36 392.737 575.372 393.064 573.453C393.956 568.281 394.793 563.406 395.258 559.742C395.921 554.41 393.948 546.793 390.421 538.262C387.618 539.153 378.12 541.781 367.684 540.288C355.23 538.506 348.916 528.809 353.448 524.292C361.172 516.576 383.977 532.564 389.873 536.929C385.836 527.768 381.11 518.927 375.735 510.482C368.476 512.166 339.57 511.549 343.485 500.07C347.4 488.591 362.192 496.315 370.906 503.04C370.19 501.982 369.474 500.93 368.751 499.902C365.475 495.164 363.175 489.055 361.552 482.581Z" fill="url(#paint1_linear_183_773)"/>
<path d="M361.552 482.581C355.192 484.241 331.084 483.266 335.654 471.376C340.773 458.153 354.43 469.708 360.296 477.043C358.546 467.147 357.713 457.111 357.805 447.062C353.471 441.852 344.315 408.779 362.375 410.417C385.988 412.565 365.072 443.871 359.625 447.428C359.625 455.045 360.143 470.173 363.594 483.289C364.356 474.956 372.643 451.244 383.688 459.608C399.684 471.734 369.048 486.374 364.401 486.123C365.675 490.637 367.638 494.928 370.221 498.843C371.995 501.38 373.961 504.32 375.994 507.519L376.109 507.641C377.137 498.866 385.325 476.327 396.142 484.508C411.102 495.835 385.371 509.34 378.097 510.878C382.852 518.525 387.109 526.471 390.84 534.667C391.343 526.745 406.889 510.543 413.067 519.806C416.517 524.97 398.29 541.804 392.28 538.033C395.707 546.412 397.764 554.235 397.056 559.94C396.789 562.042 396.408 564.51 395.959 567.222C400.217 562.507 415.603 546.724 420.181 558.942C423.99 569.073 411.292 574.938 405.952 574.938C401.778 574.938 397.353 570.992 395.616 569.263C395.372 570.726 395.118 572.221 394.854 573.75C392.706 586.219 390.132 601.225 390.893 610.251C394.527 603.205 410.751 573.856 420.189 592.732C425.033 602.405 411.3 610.517 405.96 612.292C401.588 613.755 393.773 612.445 391.076 611.927C391.202 612.861 391.406 613.783 391.686 614.684C395.167 625.112 402.182 635.707 402.258 635.814C402.346 635.95 402.395 636.107 402.401 636.269C402.407 636.431 402.369 636.592 402.291 636.734C402.213 636.876 402.098 636.994 401.958 637.076C401.818 637.159 401.659 637.201 401.496 637.2C401.347 637.201 401.199 637.166 401.066 637.097C400.933 637.028 400.82 636.927 400.735 636.804C397.266 631.424 394.249 625.765 391.716 619.886C387.527 619.353 371.424 617.16 366.793 614.075C361.461 610.517 351.902 598.84 359.679 594.506C371.706 587.826 384.327 605.589 389.85 614.829C387.793 607.973 389.614 594.141 391.754 581.184C387.45 582.471 373.473 579.973 368.568 576.72C363.236 573.163 354.034 563.947 359.679 558.935C373.816 546.366 388.761 572.988 392.051 579.379C392.394 577.36 392.737 575.372 393.064 573.453C393.956 568.281 394.793 563.406 395.258 559.742C395.921 554.41 393.948 546.793 390.421 538.262C387.618 539.153 378.12 541.781 367.684 540.288C355.23 538.506 348.916 528.809 353.448 524.292C361.172 516.576 383.977 532.564 389.873 536.929C385.836 527.768 381.11 518.927 375.735 510.482C368.476 512.166 339.57 511.549 343.485 500.07C347.4 488.591 362.192 496.315 370.906 503.04C370.19 501.982 369.474 500.93 368.751 499.902C365.475 495.164 363.175 489.055 361.552 482.581Z" fill="url(#paint2_linear_183_773)"/>
<path d="M413.073 592.739C428.01 586.767 431.658 609.619 432.443 617.114C435.733 606.191 437.127 592.892 435.642 582.075C433.357 582.022 424.567 581.603 418.412 578.526C411.298 574.969 406.91 560.725 413.08 558.965C423.447 556.002 432.565 573.963 435.337 580.087C435.094 578.709 434.804 577.368 434.461 576.096C431.991 566.399 430.441 556.491 429.83 546.504C427.027 546.45 419.166 546.176 414.863 544.736C409.531 542.954 400.489 529.022 407.748 526.943C417.75 524.086 426.593 538.437 429.693 544.196C429.091 533.197 429.548 522.616 431.415 515.403C430.653 512.234 429.129 505.501 429.129 500.268C429.129 493.154 437.386 479.146 445.125 486.032C459.286 498.623 438.064 513.339 432.976 516.561C431.255 523.668 430.874 533.92 431.453 544.554C434.629 536.556 447.449 507.755 462.873 521.611C468.784 526.943 455.759 539.397 446.877 542.939C441.996 544.909 436.839 546.109 431.59 546.496C432.199 556.322 433.729 566.069 436.16 575.608C436.572 577.157 436.905 578.726 437.158 580.308C440.532 573.506 456.201 544.569 473.545 557.167C480.735 562.4 466.43 574.953 459.316 578.495C453.222 581.542 440.776 581.71 437.371 581.694C438.849 592.48 437.516 605.688 434.324 616.733C439.557 608.834 454.83 588.55 466.446 601.598C473.301 609.352 455.5 615.918 450.45 617.594C445.994 619.117 436.457 619.521 433.441 619.627C430.904 627.245 427.469 633.605 423.455 636.949C423.296 637.086 423.093 637.162 422.883 637.162C422.7 637.162 422.521 637.106 422.371 637.001C422.22 636.896 422.106 636.747 422.044 636.574C421.981 636.402 421.974 636.214 422.022 636.037C422.07 635.86 422.171 635.703 422.312 635.585C426.121 632.394 429.427 626.346 431.849 619.033C429.564 618.074 422.8 615.164 418.435 612.254C413.073 608.743 404.816 596.037 413.073 592.739Z" fill="#34C4FF"/>
<path d="M374.837 637.208H455.768C456.004 637.208 456.231 637.114 456.398 636.947C456.565 636.78 456.659 636.553 456.659 636.317C456.659 636.08 456.565 635.854 456.398 635.686C456.231 635.519 456.004 635.425 455.768 635.425H374.837C374.72 635.425 374.604 635.448 374.495 635.493C374.387 635.538 374.289 635.604 374.206 635.686C374.124 635.769 374.058 635.867 374.013 635.976C373.968 636.084 373.945 636.2 373.945 636.317C373.945 636.434 373.968 636.55 374.013 636.658C374.058 636.766 374.124 636.864 374.206 636.947C374.289 637.029 374.387 637.095 374.495 637.14C374.604 637.185 374.72 637.208 374.837 637.208V637.208Z" fill="#14336A"/>
<path d="M346.372 637.208H365.049C365.285 637.208 365.512 637.114 365.679 636.947C365.846 636.78 365.94 636.553 365.94 636.317C365.94 636.08 365.846 635.854 365.679 635.686C365.512 635.519 365.285 635.425 365.049 635.425H346.372C346.135 635.425 345.909 635.519 345.742 635.686C345.574 635.854 345.48 636.08 345.48 636.317C345.48 636.553 345.574 636.78 345.742 636.947C345.909 637.114 346.135 637.208 346.372 637.208Z" fill="#14336A"/>
<path d="M621.856 105.596H955.187C956.639 105.596 958.032 105.019 959.059 103.992C960.086 102.965 960.663 101.572 960.663 100.12V39.3279C960.661 37.8767 960.083 36.4856 959.056 35.4602C958.03 34.4348 956.638 33.8588 955.187 33.8588H621.856C621.137 33.8578 620.425 33.9985 619.76 34.2729C619.096 34.5473 618.492 34.95 617.983 35.458C617.475 35.9659 617.071 36.5692 616.796 37.2332C616.521 37.8972 616.379 38.609 616.379 39.3279V100.105C616.378 100.824 616.519 101.537 616.794 102.202C617.069 102.866 617.472 103.471 617.981 103.979C618.489 104.488 619.094 104.892 619.759 105.166C620.423 105.441 621.136 105.582 621.856 105.581V105.596Z" fill="white"/>
<path d="M955.19 106.792H621.859C620.98 106.793 620.109 106.621 619.296 106.285C618.483 105.949 617.745 105.456 617.123 104.834C616.501 104.212 616.008 103.473 615.672 102.66C615.336 101.848 615.163 100.976 615.164 100.097V39.3279C615.164 38.449 615.337 37.5787 615.674 36.7668C616.01 35.9549 616.504 35.2173 617.126 34.5962C617.747 33.9751 618.485 33.4826 619.298 33.147C620.11 32.8113 620.981 32.6391 621.859 32.6401H955.19C956.069 32.6391 956.94 32.8113 957.752 33.147C958.564 33.4826 959.303 33.9751 959.924 34.5962C960.546 35.2173 961.039 35.9549 961.376 36.7668C961.713 37.5787 961.886 38.449 961.886 39.3279V100.105C961.887 100.984 961.714 101.855 961.378 102.668C961.042 103.481 960.549 104.219 959.927 104.841C959.305 105.463 958.567 105.956 957.754 106.292C956.941 106.628 956.07 106.801 955.19 106.8V106.792ZM621.859 35.07C621.3 35.0679 620.746 35.1765 620.229 35.3893C619.712 35.602 619.242 35.9149 618.847 36.3099C618.451 36.7049 618.137 37.1742 617.924 37.6908C617.71 38.2074 617.6 38.7612 617.601 39.3203V100.097C617.6 100.656 617.71 101.211 617.924 101.728C618.137 102.245 618.451 102.714 618.846 103.11C619.242 103.506 619.712 103.819 620.229 104.033C620.746 104.246 621.3 104.356 621.859 104.355H955.19C955.75 104.356 956.304 104.246 956.821 104.033C957.338 103.819 957.808 103.506 958.204 103.11C958.599 102.714 958.913 102.245 959.126 101.728C959.34 101.211 959.449 100.656 959.448 100.097V39.3279C959.448 38.7691 959.338 38.2158 959.124 37.6996C958.91 37.1834 958.596 36.7145 958.201 36.3198C957.805 35.925 957.336 35.6121 956.819 35.3989C956.303 35.1858 955.749 35.0766 955.19 35.0776L621.859 35.07Z" fill="#E3ECF5"/>
<path d="M904.521 91.8324H942.5C943.329 91.8304 944.123 91.4997 944.709 90.9128C945.294 90.3259 945.623 89.5308 945.623 88.7018V50.7535C945.624 50.3428 945.544 49.9358 945.387 49.5561C945.231 49.1763 945.001 48.8311 944.711 48.5403C944.421 48.2495 944.076 48.0188 943.697 47.8614C943.317 47.7039 942.911 47.6229 942.5 47.6229H904.521C903.691 47.6229 902.895 47.9527 902.308 48.5398C901.72 49.1269 901.391 49.9232 901.391 50.7535V88.7323C901.391 89.5626 901.72 90.3589 902.308 90.946C902.895 91.5331 903.691 91.8629 904.521 91.8629V91.8324Z" fill="#E3ECF5"/>
<path d="M660.469 65.3935H873.214C874.542 65.3935 875.815 64.8663 876.753 63.9278C877.692 62.9893 878.219 61.7164 878.219 60.3891V60.3891C878.219 59.0619 877.692 57.789 876.753 56.8505C875.815 55.912 874.542 55.3847 873.214 55.3847H660.469C659.812 55.3837 659.161 55.5125 658.553 55.7636C657.946 56.0147 657.393 56.3833 656.929 56.8482C656.464 57.3131 656.095 57.8652 655.844 58.4728C655.593 59.0805 655.464 59.7317 655.465 60.3891V60.3891C655.457 61.335 655.722 62.2631 656.227 63.0627C656.678 63.7794 657.304 64.3694 658.046 64.7772C658.789 65.1849 659.623 65.3971 660.469 65.3935V65.3935Z" fill="#E3ECF5"/>
<path d="M660.47 84.0401H873.215C873.983 84.0413 874.741 83.8645 875.43 83.5235C876.118 83.1826 876.718 82.6867 877.183 82.0749C877.86 81.2041 878.225 80.1311 878.219 79.0281V79.0281C878.228 78.0797 877.964 77.1489 877.457 76.3469C877.005 75.6358 876.38 75.0502 875.641 74.6442C874.902 74.2381 874.073 74.0247 873.23 74.0237H660.485C659.158 74.0237 657.885 74.5509 656.946 75.4894C656.008 76.4279 655.48 77.7008 655.48 79.0281V79.0281C655.48 80.3553 656.008 81.6282 656.946 82.5667C657.885 83.5052 659.158 84.0325 660.485 84.0325L660.47 84.0401Z" fill="#E3ECF5"/>
<path d="M741.804 204.672H408.465C407.012 204.672 405.619 204.095 404.592 203.068C403.565 202.041 402.988 200.648 402.988 199.195V138.426C402.988 136.974 403.565 135.581 404.592 134.553C405.619 133.526 407.012 132.949 408.465 132.949H741.804C742.523 132.949 743.234 133.091 743.898 133.366C744.562 133.642 745.166 134.045 745.674 134.554C746.182 135.063 746.584 135.666 746.859 136.331C747.133 136.995 747.274 137.707 747.273 138.426V199.195C747.274 199.914 747.133 200.626 746.859 201.29C746.584 201.955 746.182 202.559 745.674 203.067C745.166 203.576 744.562 203.979 743.898 204.255C743.234 204.53 742.523 204.672 741.804 204.672V204.672Z" fill="white"/>
<path d="M741.804 205.891H408.465C406.69 205.889 404.988 205.183 403.733 203.927C402.478 202.672 401.772 200.97 401.77 199.195V138.426C401.769 137.547 401.941 136.675 402.277 135.863C402.613 135.05 403.106 134.311 403.728 133.689C404.35 133.068 405.089 132.574 405.902 132.238C406.714 131.902 407.585 131.73 408.465 131.731H741.804C742.683 131.729 743.554 131.901 744.367 132.236C745.18 132.572 745.918 133.065 746.54 133.688C747.161 134.31 747.654 135.049 747.989 135.862C748.324 136.675 748.494 137.547 748.491 138.426V199.195C748.492 200.074 748.32 200.945 747.985 201.757C747.649 202.569 747.156 203.307 746.535 203.929C745.914 204.551 745.177 205.044 744.365 205.381C743.553 205.717 742.683 205.891 741.804 205.891V205.891ZM408.465 134.168C407.336 134.17 406.254 134.619 405.456 135.418C404.658 136.216 404.209 137.297 404.207 138.426V199.195C404.209 200.324 404.658 201.406 405.456 202.204C406.254 203.002 407.336 203.451 408.465 203.453H741.804C742.362 203.453 742.916 203.343 743.432 203.129C743.948 202.915 744.417 202.601 744.812 202.206C745.206 201.81 745.519 201.341 745.733 200.824C745.946 200.307 746.055 199.754 746.054 199.195V138.426C746.056 137.867 745.947 137.313 745.735 136.796C745.522 136.279 745.209 135.809 744.814 135.413C744.419 135.018 743.95 134.704 743.433 134.49C742.916 134.277 742.363 134.167 741.804 134.168H408.465Z" fill="#E3ECF5"/>
<path d="M459.141 190.763H421.162C420.751 190.764 420.344 190.684 419.964 190.527C419.585 190.371 419.239 190.141 418.949 189.851C418.658 189.561 418.427 189.216 418.27 188.837C418.112 188.457 418.031 188.051 418.031 187.64V149.661C418.03 149.25 418.111 148.842 418.268 148.462C418.424 148.082 418.655 147.736 418.946 147.445C419.237 147.154 419.582 146.924 419.963 146.767C420.343 146.61 420.75 146.53 421.162 146.531H459.141C459.88 146.538 460.593 146.808 461.152 147.292C461.5 147.588 461.779 147.956 461.971 148.37C462.163 148.784 462.263 149.235 462.264 149.692V187.67C462.264 188.499 461.935 189.293 461.349 189.879C460.763 190.464 459.969 190.793 459.141 190.793V190.763Z" fill="#E3ECF5"/>
<path d="M703.191 164.324H490.438C489.112 164.324 487.84 163.798 486.902 162.861C485.964 161.924 485.436 160.653 485.434 159.327V159.327C485.434 158 485.961 156.727 486.899 155.789C487.838 154.85 489.111 154.323 490.438 154.323H703.191C703.848 154.323 704.498 154.452 705.105 154.704C705.711 154.956 706.263 155.324 706.727 155.789C707.191 156.254 707.559 156.806 707.809 157.413C708.06 158.02 708.189 158.671 708.188 159.327V159.327C708.19 159.984 708.062 160.635 707.811 161.242C707.561 161.849 707.193 162.401 706.728 162.865C706.264 163.33 705.712 163.698 705.105 163.948C704.498 164.198 703.847 164.326 703.191 164.324V164.324Z" fill="#E3ECF5"/>
<path d="M635.202 182.971H490.477C489.151 182.971 487.879 182.445 486.941 181.508C486.003 180.571 485.475 179.3 485.473 177.974C485.471 177.316 485.599 176.665 485.85 176.056C486.1 175.448 486.469 174.896 486.934 174.431C487.399 173.966 487.952 173.597 488.56 173.346C489.168 173.096 489.819 172.968 490.477 172.97H635.202C635.859 172.968 636.511 173.096 637.119 173.346C637.727 173.597 638.28 173.966 638.745 174.431C639.21 174.896 639.578 175.448 639.829 176.056C640.08 176.665 640.208 177.316 640.206 177.974V177.974C640.206 178.631 640.077 179.281 639.825 179.888C639.573 180.495 639.205 181.046 638.74 181.51C638.275 181.974 637.723 182.342 637.116 182.593C636.509 182.843 635.858 182.972 635.202 182.971Z" fill="#E3ECF5"/>
<path d="M503.465 236.359C503.465 236.359 493.114 227.614 492.344 228.178C491.575 228.742 492.763 233.7 492.763 233.7C492.763 233.7 485.771 228.452 482.762 231.415C479.753 234.378 488.711 253.939 497.524 256.323L503.465 236.359Z" fill="#FFAA9D"/>
<path d="M855.121 226.274C855.121 226.274 865.48 217.529 866.25 218.093C867.019 218.657 865.831 223.615 865.831 223.615C865.831 223.615 872.823 218.367 875.832 221.33C878.841 224.293 869.883 243.854 861.07 246.231L855.121 226.274Z" fill="#FFAA9D"/>
<path d="M607.375 605.437V621.235H661.472L663.444 602.999L607.375 605.437Z" fill="url(#paint3_linear_183_773)"/>
<path d="M607.374 621.273L597.266 632.698C596.91 633.092 596.676 633.581 596.592 634.106C596.509 634.63 596.581 635.168 596.798 635.653C597.015 636.138 597.369 636.549 597.816 636.835C598.263 637.122 598.784 637.273 599.315 637.269H657.647C658.158 637.264 658.649 637.074 659.031 636.736C659.414 636.397 659.66 635.932 659.727 635.425L661.471 621.296L607.374 621.273Z" fill="#0B2252"/>
<path d="M756.458 605.368L758.011 621.235H703.915L701.211 602.969L756.458 605.368Z" fill="url(#paint4_linear_183_773)"/>
<path d="M758.014 621.273L768.122 632.698C768.482 633.09 768.719 633.579 768.804 634.104C768.89 634.629 768.82 635.168 768.603 635.654C768.386 636.14 768.031 636.552 767.583 636.838C767.135 637.125 766.613 637.275 766.081 637.269H707.749C707.237 637.266 706.744 637.077 706.36 636.738C705.976 636.399 705.729 635.933 705.662 635.425L703.918 621.296L758.014 621.273Z" fill="#0B2252"/>
<path d="M634.547 329.584C634.547 329.584 613.836 400.164 609.997 453.872C606.158 507.58 606.333 607.219 606.333 607.219H664.132C664.132 607.219 677.644 471.14 683.007 470.653C688.369 470.165 699.109 607.219 699.109 607.219H759.589C759.589 607.219 745.97 372.918 724.375 329.584H634.547Z" fill="#14336D"/>
<path d="M868.245 243.344L855.067 224.111C832.117 237.265 799.729 237.943 760.25 227.157C731.35 219.251 711.173 210.628 678.861 210.628C646.549 210.628 614.786 233.48 598.706 237.882C559.227 248.676 526.839 248.005 503.897 234.835L490.734 254.069C490.734 254.069 544.58 299.482 624.193 287.279C622.228 314 617.818 354.85 619.174 361.165C622.365 375.957 733.316 376.627 738.686 359.786C740.262 354.843 732.821 303.024 731.708 276.082C813.013 289.93 868.245 243.344 868.245 243.344Z" fill="url(#paint5_linear_183_773)"/>
<path d="M708.174 185.576L708.425 202.234L705.935 202.158C705.935 202.158 703.939 215.937 694.212 213.767C691.416 213.142 687.844 210.773 686.816 211.245C685.597 211.809 685.071 215.579 684.79 216.669C683.731 220.843 669.129 216.623 671.498 212.35C673.783 208.29 677.096 202.745 676.388 201.206C673.912 195.836 673.212 182.506 686.633 178.05C697.32 174.455 708.06 179.84 708.174 185.576Z" fill="#FFAA9D"/>
<path d="M671.498 212.312C673.783 208.252 677.096 202.707 676.388 201.168C676.388 201.168 682.025 209.836 687.227 211.146C687.081 211.124 686.931 211.14 686.793 211.192C685.574 211.756 685.049 215.526 684.767 216.615C683.731 220.805 669.129 216.585 671.498 212.312Z" fill="#FF9F91"/>
<path d="M685.652 193.711C679.375 192.637 683.275 206.614 676.366 206.15C669.458 205.685 664.636 190.573 669.709 178.926C674.782 167.28 684.448 167.919 693.589 169.511C702.729 171.103 714.056 175.255 714.048 182.209C714.048 198.967 694.244 184.906 692.926 189.933C691.913 193.825 690.359 205.076 694.388 205.335C698.418 205.594 702.531 202.288 705.715 203.126C707.551 203.613 712.57 225.558 699.408 226.289C686.352 227.013 683.047 215.496 685.804 206.081C688.447 197.131 688.714 194.236 685.652 193.711Z" fill="#14336A"/>
<path d="M958.287 292.215C957.778 292.217 957.281 292.057 956.87 291.756C956.459 291.456 956.154 291.032 956.001 290.547C949.908 270.994 941.841 259.941 932.038 257.694C925.503 256.171 919.942 259.058 914.069 262.089C908.197 265.121 902.172 268.229 895.027 266.941C880.699 264.374 869.89 245.728 861.87 209.943C861.732 209.328 861.845 208.683 862.183 208.151C862.521 207.619 863.056 207.243 863.671 207.105C864.286 206.968 864.931 207.081 865.463 207.419C865.995 207.756 866.371 208.292 866.508 208.907C873.927 242.148 883.807 260.101 895.865 262.226C901.471 263.224 906.529 260.604 911.929 257.831C918.023 254.693 924.878 251.144 933.135 253.025C944.705 255.668 953.937 267.802 960.556 289.092C960.744 289.689 960.69 290.336 960.405 290.893C960.12 291.45 959.627 291.873 959.033 292.07C958.794 292.16 958.542 292.209 958.287 292.215V292.215Z" fill="#34C4FF"/>
<path d="M877.973 203.095C876.153 207.55 872.761 211.181 868.441 213.3C864.12 215.42 859.172 215.879 854.535 214.592C849.898 213.305 845.895 210.361 843.285 206.318C840.675 202.276 839.64 197.415 840.376 192.66C840.604 191.19 873.213 180.967 875.247 183.58C877.382 186.304 878.758 189.543 879.237 192.971C879.716 196.398 879.28 199.891 877.973 203.095V203.095Z" fill="#28AEE5"/>
<path d="M868.036 189.978L870.713 189.257C871.323 189.092 871.683 188.465 871.519 187.856L865.691 166.241C865.527 165.632 864.9 165.271 864.29 165.436L861.613 166.157C861.004 166.322 860.643 166.949 860.808 167.558L866.636 189.173C866.8 189.782 867.427 190.143 868.036 189.978Z" fill="#14336A"/>
<path d="M842.534 193.321L845.224 192.6C845.836 192.436 846.199 191.806 846.035 191.194L840.214 169.479C840.05 168.867 839.421 168.504 838.809 168.668L836.12 169.389C835.508 169.553 835.144 170.182 835.308 170.794L841.129 192.509C841.293 193.121 841.922 193.485 842.534 193.321Z" fill="#14336A"/>
<path d="M836.321 189.389L880.106 178.104C880.552 177.989 881.027 178.056 881.424 178.291C881.821 178.525 882.109 178.908 882.224 179.355L884.839 189.499C885.298 191.278 885.03 193.167 884.097 194.749C883.163 196.332 881.638 197.478 879.859 197.937L846.116 206.634C844.336 207.092 842.448 206.825 840.865 205.891C839.283 204.958 838.136 203.433 837.678 201.654L835.063 191.51C834.948 191.063 835.015 190.589 835.25 190.191C835.484 189.794 835.867 189.506 836.314 189.391L836.321 189.389Z" fill="#34C4FF"/>
<path d="M481.879 382.5C481.352 382.501 480.84 382.327 480.424 382.005C461.96 367.761 453.101 353.967 454.099 341.018C455.112 327.909 465.609 319.347 475.755 311.06C486.266 302.49 496.184 294.393 496.724 281.703C497.029 274.444 494.066 269.653 490.928 264.58C487.531 259.096 484.027 253.429 484.728 244.776C485.977 229.473 499.733 215.359 525.624 202.813C526.191 202.539 526.845 202.501 527.441 202.708C528.036 202.915 528.525 203.35 528.8 203.918C529.075 204.485 529.113 205.139 528.906 205.735C528.698 206.33 528.263 206.819 527.695 207.094C503.427 218.847 490.57 231.659 489.465 245.179C488.886 252.286 491.842 257.054 494.965 262.112C498.187 267.315 501.82 273.21 501.47 281.917C500.845 296.739 489.618 305.903 478.763 314.761C468.953 322.759 459.721 330.323 458.837 341.421C457.976 352.672 466.218 365.072 483.334 378.28C483.831 378.667 484.156 379.235 484.236 379.86C484.315 380.486 484.145 381.117 483.76 381.617C483.535 381.898 483.248 382.123 482.922 382.277C482.596 382.43 482.239 382.506 481.879 382.5V382.5Z" fill="#34C4FF"/>
<path d="M541.017 220.919C537.404 221.744 533.627 221.479 530.165 220.156C526.703 218.834 523.711 216.515 521.567 213.491C519.424 210.468 518.226 206.876 518.124 203.172C518.023 199.467 519.023 195.816 520.997 192.679C522.972 189.543 525.832 187.063 529.217 185.553C532.601 184.043 536.358 183.571 540.011 184.197C543.663 184.823 547.049 186.519 549.738 189.069C552.426 191.619 554.298 194.91 555.116 198.525C556.209 203.364 555.339 208.438 552.696 212.636C550.053 216.834 545.853 219.813 541.017 220.919V220.919Z" fill="#28AEE6"/>
<path d="M561.808 221.376C557.817 222.29 552.218 212.647 549.309 199.85C546.399 187.053 547.26 175.94 551.251 175.034C555.242 174.127 560.841 183.763 563.751 196.56C566.661 209.356 565.792 220.439 561.808 221.376Z" fill="#34C4FF"/>
<path d="M535.532 204.824L534.725 201.275C533.453 195.6 534.477 189.654 537.574 184.732C540.67 179.81 545.588 176.313 551.254 175.003L561.811 221.376C556.132 222.652 550.18 221.626 545.255 218.524C540.33 215.423 536.834 210.497 535.532 204.824V204.824Z" fill="#34C4FF"/>
<path d="M560.73 216.615C557.561 217.331 553.113 209.669 550.828 199.485C548.543 189.301 549.198 180.442 552.351 179.741C555.505 179.04 559.968 186.688 562.254 196.864C564.539 207.041 563.906 215.892 560.73 216.615Z" fill="#74D7FF"/>
<path d="M555.588 192.934C555.047 193.056 554.285 191.753 553.889 190.017C553.493 188.28 553.615 186.779 554.156 186.657C554.697 186.536 555.458 187.838 555.847 189.575C556.235 191.311 556.129 192.812 555.588 192.934Z" fill="#14336A"/>
<path d="M559.385 209.592C558.844 209.714 558.082 208.404 557.686 206.675C557.29 204.946 557.412 203.43 557.953 203.308C558.494 203.186 559.255 204.489 559.644 206.226C560.032 207.962 559.926 209.471 559.385 209.592Z" fill="#14336A"/>
<defs>
<linearGradient id="paint0_linear_183_773" x1="556.023" y1="60.9985" x2="556.023" y2="344.102" gradientUnits="userSpaceOnUse">
<stop stop-color="#E9F3FC"/>
<stop offset="1" stop-color="white"/>
</linearGradient>
<linearGradient id="paint1_linear_183_773" x1="375.012" y1="504.533" x2="395.289" y2="616.489" gradientUnits="userSpaceOnUse">
<stop stop-color="#3162DF"/>
<stop offset="0.96" stop-color="#173DB8"/>
</linearGradient>
<linearGradient id="paint2_linear_183_773" x1="375.012" y1="504.533" x2="395.289" y2="616.489" gradientUnits="userSpaceOnUse">
<stop stop-color="#4250E8"/>
<stop offset="0.96" stop-color="#1F2CB7"/>
</linearGradient>
<linearGradient id="paint3_linear_183_773" x1="607.375" y1="612.117" x2="663.437" y2="612.117" gradientUnits="userSpaceOnUse">
<stop stop-color="#FFAA9D"/>
<stop offset="0.97" stop-color="#FF9F91"/>
</linearGradient>
<linearGradient id="paint4_linear_183_773" x1="445.507" y1="19416" x2="-3790.68" y2="19416" gradientUnits="userSpaceOnUse">
<stop stop-color="#FFAA9D"/>
<stop offset="0.97" stop-color="#FF9F91"/>
</linearGradient>
<linearGradient id="paint5_linear_183_773" x1="545082" y1="117071" x2="550677" y2="144609" gradientUnits="userSpaceOnUse">
<stop stop-color="#4250E8"/>
<stop offset="0.96" stop-color="#212EBC"/>
</linearGradient>
</defs>
</svg>
