<svg width="670" height="410" viewBox="0 0 670 410" fill="none" xmlns="http://www.w3.org/2000/svg">
<path opacity="0.2" d="M377.224 409.828C474.181 409.828 552.781 407.488 552.781 404.602C552.781 401.716 474.181 399.377 377.224 399.377C280.267 399.377 201.668 401.716 201.668 404.602C201.668 407.488 280.267 409.828 377.224 409.828Z" fill="#0B2252"/>
<path d="M483.671 20.1702C484.934 18.9052 486.435 17.9025 488.087 17.2197C489.739 16.5368 491.51 16.1874 493.297 16.1915H506.81C507.812 11.6034 510.353 7.49605 514.011 4.55092C517.67 1.6058 522.225 0 526.921 0C531.617 0 536.172 1.6058 539.83 4.55092C543.489 7.49605 546.03 11.6034 547.032 16.1915H550.667C554.265 16.1964 557.715 17.6286 560.259 20.174C562.802 22.7194 564.232 26.17 564.235 29.7685V29.7685C564.235 33.3717 562.803 36.8274 560.255 39.3753C557.708 41.9232 554.252 43.3546 550.649 43.3546H493.279C489.679 43.3498 486.228 41.9162 483.684 39.3688C481.14 36.8215 479.711 33.3686 479.711 29.7685C479.708 27.9868 480.056 26.2221 480.736 24.5752C481.415 22.9283 482.413 21.4314 483.671 20.1702Z" fill="#E9F3FC"/>
<path d="M318.495 40.6365C317.311 39.4492 315.904 38.5075 314.356 37.8657C312.807 37.2238 311.146 36.8943 309.47 36.8962H296.773C295.83 32.5861 293.442 28.7279 290.005 25.9616C286.568 23.1952 282.288 21.6869 277.876 21.6869C273.464 21.6869 269.185 23.1952 265.748 25.9616C262.311 28.7279 259.923 32.5861 258.98 36.8962H255.574C252.189 36.8974 248.943 38.2428 246.549 40.6365C244.155 43.0303 242.81 46.2766 242.809 49.6619V49.6619C242.807 51.3388 243.136 52.9996 243.777 54.5492C244.418 56.0988 245.358 57.5068 246.544 58.6926C247.729 59.8783 249.137 60.8186 250.687 61.4595C252.237 62.1004 253.897 62.4293 255.574 62.4275H309.474C311.151 62.4281 312.811 62.0983 314.36 61.457C315.909 60.8157 317.317 59.8754 318.502 58.6899C319.688 57.5044 320.628 56.0969 321.269 54.5478C321.911 52.9987 322.24 51.3384 322.24 49.6619C322.241 47.9849 321.911 46.3243 321.268 44.7754C320.626 43.2265 319.683 41.8199 318.495 40.6365V40.6365Z" fill="#E9F3FC"/>
<path d="M669.181 213.649V285.934C603.478 274.539 515.131 264.152 411.809 264.152C183.728 264.152 4.8441 314.839 4.8441 314.839C-8.44868 286.461 6.27882 204.729 40.8951 185.578C75.5113 166.427 105.585 204.711 132.918 191.047C160.25 177.383 134.678 56.5603 176.651 48.7864C218.624 41.0124 245.058 118.761 296.369 118.761C347.679 118.761 339.914 41.0307 399.892 37.9184C459.87 34.806 458.288 117.505 494.385 117.505C530.482 117.505 515.837 84.3423 572.405 83.3705C628.972 82.3988 644.58 200.402 668.805 213.452L669.181 213.649Z" fill="url(#paint0_linear_183_871)"/>
<path d="M515.513 123.693H253.847C244.346 123.693 236.645 131.395 236.645 140.896V295.977C236.645 305.478 244.346 313.18 253.847 313.18H515.513C525.014 313.18 532.716 305.478 532.716 295.977V140.896C532.716 131.395 525.014 123.693 515.513 123.693Z" fill="white"/>
<path d="M518.949 314.83H250.403C246.316 314.825 242.399 313.199 239.51 310.309C236.62 307.419 234.996 303.501 234.992 299.415V137.458C234.996 133.372 236.62 129.454 239.51 126.564C242.399 123.674 246.316 122.048 250.403 122.043H518.949C523.036 122.048 526.954 123.674 529.844 126.564C532.733 129.454 534.359 133.372 534.364 137.458V299.415C534.359 303.502 532.733 307.42 529.844 310.31C526.954 313.2 523.036 314.825 518.949 314.83V314.83ZM250.403 125.344C247.192 125.349 244.113 126.627 241.843 128.898C239.573 131.169 238.296 134.247 238.292 137.458V299.415C238.296 302.626 239.573 305.705 241.843 307.976C244.113 310.247 247.192 311.525 250.403 311.53H518.949C522.159 311.524 525.236 310.245 527.505 307.974C529.775 305.703 531.051 302.625 531.055 299.415V137.458C531.051 134.247 529.774 131.169 527.504 128.898C525.234 126.627 522.155 125.349 518.944 125.344H250.403Z" fill="#E3ECF5"/>
<path d="M358.897 179.399C365.379 172.496 374.276 169.046 385.588 169.049C396.051 169.049 404.43 172 410.725 177.9C417.02 183.801 420.168 191.345 420.168 200.53C420.168 206.089 419.026 210.601 416.744 214.066C414.461 217.531 409.783 222.621 402.708 229.334C397.565 234.224 394.218 238.349 392.665 241.71C391.113 245.072 390.335 250.077 390.332 256.727H376.32C376.32 249.225 377.212 243.177 378.997 238.584C380.781 233.991 384.754 228.731 390.914 222.803L397.332 216.587C399.14 214.945 400.717 213.065 402.021 211C404.119 207.85 405.255 204.158 405.289 200.374C405.383 195.494 403.717 190.743 400.595 186.99C397.46 183.21 392.276 181.32 385.043 181.32C376.095 181.32 369.909 184.573 366.483 191.079C364.552 194.7 363.453 199.921 363.188 206.741H349.18C349.18 195.407 352.419 186.293 358.897 179.399ZM376.017 269.79H391.68V286.159H376.017V269.79Z" fill="#34C4FF"/>
<path d="M506.227 149.284H219.314C218.877 149.284 218.457 149.11 218.147 148.801C217.838 148.492 217.664 148.072 217.664 147.634C217.664 147.197 217.838 146.777 218.147 146.467C218.457 146.158 218.877 145.984 219.314 145.984H506.227C506.665 145.984 507.085 146.158 507.394 146.467C507.704 146.777 507.878 147.197 507.878 147.634C507.878 148.072 507.704 148.492 507.394 148.801C507.085 149.11 506.665 149.284 506.227 149.284V149.284Z" fill="#E3ECF5"/>
<path d="M255.589 136.944C255.884 135.128 254.65 133.416 252.834 133.121C251.017 132.826 249.305 134.06 249.01 135.877C248.716 137.693 249.949 139.405 251.766 139.7C253.583 139.995 255.294 138.761 255.589 136.944Z" fill="#E3ECF5"/>
<path d="M268.955 137.15C269.378 135.359 268.269 133.564 266.477 133.142C264.686 132.719 262.891 133.828 262.469 135.619C262.046 137.411 263.155 139.205 264.946 139.628C266.738 140.051 268.532 138.941 268.955 137.15Z" fill="#E3ECF5"/>
<path d="M282.495 136.943C282.79 135.127 281.557 133.415 279.74 133.12C277.923 132.825 276.212 134.059 275.917 135.876C275.622 137.692 276.855 139.404 278.672 139.699C280.489 139.994 282.2 138.76 282.495 136.943Z" fill="#E3ECF5"/>
<path d="M156.565 284.839C149.983 284.623 142.851 282.331 143.006 271.789C143.162 261.246 150.831 259.582 151.61 251.68C152.389 243.778 152.44 236.407 156.565 236.329C160.69 236.251 158.078 239.629 160.003 243.292C161.928 246.954 165.65 251.643 164.926 258.491C164.202 265.339 169.079 267.957 168.822 273.558C168.565 279.159 165.063 285.082 156.565 284.839Z" fill="#DAEEFF"/>
<path d="M158.986 257.873C158.959 257.846 158.928 257.825 158.893 257.811C158.859 257.796 158.821 257.789 158.784 257.789C158.746 257.789 158.709 257.796 158.675 257.811C158.64 257.825 158.609 257.846 158.582 257.873C158.53 257.927 158.5 257.999 158.5 258.074C158.5 258.15 158.53 258.222 158.582 258.276C158.582 258.276 160.297 260 160.122 265.839C159.971 270.881 157.372 278.701 156.524 281.062C155.75 279.228 154.746 277.193 153.898 275.483C153.329 274.333 152.834 273.334 152.568 272.706C151.588 270.414 153.077 265.582 153.091 265.537C153.113 265.464 153.105 265.385 153.07 265.318C153.035 265.25 152.975 265.199 152.903 265.175C152.867 265.163 152.83 265.159 152.792 265.162C152.755 265.166 152.718 265.176 152.685 265.194C152.652 265.211 152.622 265.235 152.598 265.264C152.574 265.293 152.557 265.327 152.546 265.362C152.481 265.569 150.978 270.441 152.037 272.93C152.312 273.576 152.811 274.58 153.384 275.74C154.924 278.852 157.258 283.555 157.221 285.366C157.171 287.905 156.863 291.545 156.859 291.581C156.852 291.657 156.876 291.733 156.925 291.791C156.974 291.849 157.044 291.886 157.12 291.893H157.148C157.219 291.892 157.287 291.865 157.34 291.817C157.392 291.769 157.425 291.703 157.432 291.632C157.432 291.595 157.743 287.933 157.794 285.38C157.794 284.559 157.423 283.285 156.85 281.841C157.23 280.8 160.517 271.587 160.695 265.839C160.888 259.72 159.064 257.941 158.986 257.873Z" fill="#6AC1FF"/>
<path d="M644.37 257.547C638.764 257.377 632.681 255.411 632.819 246.404C632.956 237.397 639.488 235.999 640.153 229.265C640.817 222.532 640.854 216.257 644.37 216.193C647.885 216.129 645.662 219.003 647.303 222.129C648.944 225.255 652.116 229.247 651.502 235.082C650.888 240.917 655.041 243.154 654.825 247.917C654.61 252.679 651.603 257.762 644.37 257.547Z" fill="#DAEEFF"/>
<path d="M646.453 234.555C646.431 234.533 646.404 234.515 646.375 234.503C646.345 234.49 646.314 234.484 646.282 234.484C646.25 234.484 646.218 234.49 646.189 234.503C646.159 234.515 646.132 234.533 646.11 234.555C646.087 234.578 646.069 234.605 646.057 234.634C646.045 234.664 646.038 234.695 646.038 234.727C646.038 234.759 646.045 234.791 646.057 234.82C646.069 234.85 646.087 234.876 646.11 234.899C646.11 234.899 647.572 236.366 647.425 241.348C647.297 245.652 645.065 252.313 644.359 254.325C643.694 252.757 642.842 251.025 642.117 249.572C641.631 248.586 641.201 247.738 640.981 247.202C640.151 245.244 641.439 241.128 641.439 241.087C641.449 241.057 641.452 241.025 641.45 240.993C641.447 240.961 641.438 240.93 641.423 240.902C641.408 240.874 641.387 240.849 641.363 240.829C641.338 240.808 641.309 240.793 641.278 240.785C641.248 240.775 641.215 240.771 641.183 240.774C641.151 240.776 641.12 240.785 641.091 240.8C641.063 240.815 641.037 240.836 641.017 240.861C640.996 240.885 640.981 240.914 640.971 240.945C640.916 241.119 639.637 245.272 640.54 247.394C640.774 247.944 641.196 248.797 641.691 249.787C643.002 252.441 644.991 256.452 644.959 258.01C644.913 260.174 644.652 263.277 644.652 263.309C644.649 263.341 644.652 263.374 644.662 263.405C644.672 263.436 644.687 263.464 644.708 263.489C644.729 263.514 644.755 263.534 644.784 263.549C644.813 263.564 644.844 263.572 644.877 263.575V263.575C644.938 263.575 644.997 263.552 645.042 263.51C645.087 263.469 645.115 263.411 645.12 263.35C645.12 263.318 645.385 260.201 645.427 258.019C645.337 256.975 645.065 255.954 644.625 255.003C644.95 254.119 647.76 246.262 647.902 241.362C648.072 236.132 646.518 234.619 646.453 234.555Z" fill="#6AC1FF"/>
<path d="M206.481 240.945C202.626 240.826 198.441 239.474 198.533 233.281C198.624 227.088 203.116 226.126 203.575 221.492C204.033 216.858 204.056 212.544 206.476 212.498C208.897 212.453 207.366 214.433 208.493 216.583C209.621 218.732 211.803 221.478 211.381 225.493C210.959 229.509 213.815 231.044 213.673 234.331C213.531 237.617 211.468 241.078 206.481 240.945Z" fill="#DAEEFF"/>
<path d="M207.902 225.131C207.87 225.1 207.828 225.082 207.783 225.082C207.738 225.082 207.696 225.1 207.664 225.131C207.648 225.146 207.635 225.164 207.626 225.184C207.618 225.204 207.613 225.226 207.613 225.248C207.613 225.27 207.618 225.291 207.626 225.311C207.635 225.332 207.648 225.35 207.664 225.365C207.664 225.365 208.668 226.378 208.581 229.802C208.493 232.763 206.958 237.347 206.472 238.726C206.014 237.649 205.432 236.462 204.932 235.458C204.597 234.78 204.308 234.198 204.153 233.826C203.58 232.483 204.451 229.651 204.46 229.623C204.47 229.601 204.475 229.577 204.476 229.553C204.476 229.529 204.471 229.505 204.461 229.483C204.451 229.461 204.437 229.441 204.419 229.425C204.401 229.409 204.38 229.397 204.357 229.39C204.334 229.383 204.309 229.38 204.286 229.383C204.262 229.386 204.238 229.394 204.218 229.407C204.197 229.419 204.18 229.436 204.166 229.456C204.152 229.476 204.143 229.498 204.139 229.522C204.102 229.646 203.222 232.502 203.841 233.959C204.001 234.34 204.299 234.926 204.634 235.609C205.551 237.443 206.903 240.193 206.88 241.261C206.852 242.751 206.669 244.887 206.669 244.928C206.667 244.95 206.67 244.972 206.677 244.993C206.684 245.014 206.695 245.034 206.709 245.05C206.724 245.067 206.741 245.081 206.761 245.09C206.781 245.1 206.803 245.106 206.825 245.107V245.107C206.867 245.108 206.907 245.093 206.938 245.065C206.969 245.036 206.988 244.997 206.99 244.956C206.99 244.933 207.173 242.787 207.201 241.289C207.139 240.57 206.953 239.867 206.651 239.212C206.871 238.602 208.805 233.203 208.906 229.829C209.016 226.213 207.948 225.172 207.902 225.131Z" fill="#6AC1FF"/>
<path d="M584.244 303.215C577.505 303.013 570.19 300.648 570.35 289.821C570.511 278.994 578.372 277.308 579.174 269.194C579.976 261.081 580.013 253.559 584.244 253.477C588.474 253.394 585.797 256.86 587.768 260.618C589.739 264.377 593.558 269.176 592.81 276.203C592.063 283.23 597.069 285.911 596.807 291.645C596.546 297.38 592.962 303.481 584.244 303.215Z" fill="#DAEEFF"/>
<path d="M586.745 275.575C586.689 275.521 586.613 275.493 586.536 275.495C586.458 275.497 586.384 275.53 586.331 275.586C586.277 275.643 586.248 275.718 586.25 275.796C586.253 275.874 586.286 275.948 586.342 276.001C586.342 276.001 588.098 277.766 587.919 283.757C587.768 288.932 585.082 296.94 584.252 299.342C583.454 297.453 582.418 295.377 581.557 293.626C580.975 292.443 580.466 291.421 580.182 290.775C579.182 288.423 580.704 283.477 580.722 283.441C580.746 283.366 580.738 283.285 580.701 283.216C580.665 283.147 580.602 283.095 580.528 283.072C580.453 283.049 580.372 283.056 580.303 283.093C580.234 283.129 580.182 283.192 580.159 283.266C580.095 283.477 578.554 288.469 579.641 291.017C579.92 291.682 580.434 292.709 581.016 293.901C582.597 297.109 584.985 301.913 584.949 303.788C584.898 306.387 584.582 310.122 584.577 310.159C584.572 310.237 584.598 310.313 584.648 310.372C584.699 310.431 584.77 310.468 584.848 310.475H584.871C584.944 310.476 585.015 310.449 585.069 310.399C585.123 310.35 585.157 310.282 585.164 310.21C585.164 310.168 585.485 306.419 585.535 303.792C585.535 302.953 585.16 301.647 584.573 300.167C584.958 299.099 588.336 289.656 588.51 283.766C588.694 277.468 586.823 275.648 586.745 275.575Z" fill="#6AC1FF"/>
<path d="M217.566 312.089C213.738 313.088 199.231 312.501 201.981 305.346C205.061 297.389 213.28 304.342 216.809 308.756C215.757 302.801 215.255 296.762 215.311 290.715C212.702 287.58 207.193 267.677 218.061 268.663C232.27 269.955 219.683 288.794 216.406 290.935C216.406 295.519 216.718 304.622 218.794 312.515C219.253 307.5 224.24 293.231 230.886 298.264C240.512 305.562 222.076 314.371 219.28 314.22C220.047 316.937 221.228 319.519 222.782 321.875C223.85 323.401 225.033 325.171 226.256 327.096L226.325 327.169C226.944 321.889 231.872 308.326 238.38 313.248C247.383 320.064 231.899 328.191 227.522 329.117C230.383 333.719 232.945 338.501 235.19 343.432C235.493 338.665 244.848 328.916 248.565 334.489C250.642 337.597 239.673 347.727 236.056 345.458C238.119 350.5 239.357 355.208 238.93 358.641C238.77 359.906 238.541 361.391 238.27 363.023C240.833 360.186 250.092 350.688 252.847 358.041C255.139 364.137 247.497 367.666 244.284 367.666C241.772 367.666 239.109 365.292 238.064 364.251C237.917 365.132 237.765 366.031 237.606 366.951C236.313 374.455 234.764 383.485 235.222 388.916C237.409 384.677 247.172 367.015 252.851 378.374C255.766 384.195 247.502 389.077 244.289 390.145C241.658 391.025 236.955 390.237 235.332 389.925C235.408 390.487 235.531 391.042 235.699 391.584C237.794 397.859 242.015 404.235 242.061 404.299C242.114 404.381 242.144 404.476 242.147 404.574C242.151 404.671 242.128 404.768 242.081 404.853C242.034 404.939 241.965 405.01 241.88 405.059C241.796 405.109 241.7 405.134 241.603 405.134C241.513 405.134 241.424 405.113 241.344 405.072C241.264 405.03 241.195 404.97 241.144 404.895C239.057 401.658 237.242 398.253 235.717 394.715C233.196 394.394 223.506 393.074 220.719 391.217C217.511 389.077 211.758 382.05 216.438 379.442C223.676 375.422 231.271 386.111 234.594 391.671C233.357 387.546 234.452 379.222 235.74 371.425C233.15 372.2 224.739 370.696 221.787 368.739C218.579 366.598 213.042 361.052 216.438 358.036C224.946 350.473 233.939 366.493 235.919 370.339C236.125 369.124 236.332 367.928 236.529 366.772C237.065 363.66 237.569 360.727 237.849 358.522C238.248 355.313 237.06 350.73 234.938 345.596C233.251 346.132 227.535 347.713 221.256 346.815C213.761 345.742 209.961 339.907 212.689 337.189C217.337 332.546 231.06 342.167 234.608 344.794C232.179 339.281 229.335 333.961 226.101 328.879C221.732 329.892 204.337 329.521 206.693 322.613C209.049 315.705 217.951 320.353 223.195 324.401C222.764 323.764 222.333 323.131 221.897 322.512C219.926 319.661 218.542 315.985 217.566 312.089Z" fill="url(#paint1_linear_183_871)"/>
<path d="M248.577 378.379C257.565 374.785 259.761 388.536 260.233 393.047C262.213 386.473 263.052 378.47 262.158 371.961C260.783 371.929 255.493 371.677 251.79 369.825C247.509 367.685 244.868 359.113 248.581 358.054C254.82 356.271 260.306 367.08 261.975 370.765C261.828 369.935 261.654 369.129 261.448 368.363C259.961 362.528 259.028 356.566 258.661 350.555C256.974 350.523 252.244 350.358 249.654 349.492C246.445 348.419 241.004 340.036 245.373 338.784C251.391 337.066 256.713 345.701 258.578 349.167C258.216 342.548 258.491 336.181 259.614 331.84C259.156 329.933 258.239 325.881 258.239 322.732C258.239 318.451 263.208 310.022 267.865 314.165C276.386 321.742 263.616 330.598 260.554 332.537C259.518 336.813 259.289 342.983 259.637 349.382C261.548 344.569 269.263 327.238 278.545 335.576C282.102 338.784 274.264 346.279 268.919 348.41C265.982 349.596 262.878 350.318 259.72 350.551C260.086 356.464 261.007 362.329 262.47 368.07C262.718 369.002 262.918 369.946 263.07 370.898C265.101 366.805 274.53 349.391 284.967 356.973C289.294 360.122 280.685 367.676 276.404 369.807C272.737 371.641 265.248 371.741 263.199 371.732C264.088 378.223 263.286 386.171 261.365 392.817C264.514 388.064 273.705 375.858 280.695 383.709C284.82 388.376 274.108 392.327 271.069 393.335C268.387 394.252 262.649 394.495 260.833 394.559C259.307 399.143 257.24 402.97 254.824 404.983C254.729 405.065 254.607 405.111 254.48 405.111C254.37 405.111 254.262 405.077 254.172 405.014C254.081 404.951 254.013 404.861 253.975 404.757C253.937 404.653 253.933 404.541 253.962 404.434C253.991 404.328 254.052 404.233 254.137 404.162C256.428 402.241 258.418 398.602 259.875 394.202C258.5 393.624 254.43 391.873 251.804 390.122C248.577 388.009 243.608 380.363 248.577 378.379Z" fill="#34C4FF"/>
<path d="M225.564 405.138H274.266C274.408 405.138 274.544 405.082 274.645 404.981C274.745 404.88 274.802 404.744 274.802 404.602C274.802 404.46 274.745 404.323 274.645 404.223C274.544 404.122 274.408 404.066 274.266 404.066H225.564C225.493 404.066 225.423 404.079 225.358 404.106C225.293 404.133 225.234 404.173 225.184 404.223C225.135 404.272 225.095 404.332 225.068 404.397C225.041 404.462 225.027 404.531 225.027 404.602C225.027 404.672 225.041 404.742 225.068 404.807C225.095 404.872 225.135 404.931 225.184 404.981C225.234 405.031 225.293 405.07 225.358 405.097C225.423 405.124 225.493 405.138 225.564 405.138V405.138Z" fill="#14336A"/>
<path d="M208.435 405.138H219.674C219.816 405.138 219.953 405.082 220.053 404.981C220.154 404.88 220.21 404.744 220.21 404.602C220.21 404.46 220.154 404.323 220.053 404.223C219.953 404.122 219.816 404.066 219.674 404.066H208.435C208.292 404.066 208.156 404.122 208.056 404.223C207.955 404.323 207.898 404.46 207.898 404.602C207.898 404.744 207.955 404.88 208.056 404.981C208.156 405.082 208.292 405.138 208.435 405.138Z" fill="#14336A"/>
<path d="M498.536 400.953H507.117V318.598H511.297V351.142H517.792V318.598H521.972V355.309H511.297V400.953H519.882C520.42 400.979 520.928 401.21 521.3 401.6C521.672 401.989 521.879 402.507 521.879 403.046C521.879 403.584 521.672 404.102 521.3 404.492C520.928 404.882 520.42 405.113 519.882 405.138H498.536C497.998 405.113 497.49 404.882 497.118 404.492C496.747 404.102 496.539 403.584 496.539 403.046C496.539 402.507 496.747 401.989 497.118 401.6C497.49 401.21 497.998 400.979 498.536 400.953V400.953Z" fill="#34C4FF"/>
<path d="M514.018 300.735C532.248 300.735 547.021 304.168 547.021 308.408V312.556C547.021 316.792 532.243 320.23 514.018 320.23C495.794 320.23 481.016 316.792 481.016 312.556V308.408C481.011 304.168 495.789 300.735 514.018 300.735Z" fill="#34C4FF"/>
<path opacity="0.1" d="M470.994 200.188C477.228 189.92 473.957 176.543 463.688 170.31C453.42 164.076 440.043 167.347 433.81 177.615C427.577 187.884 430.847 201.261 441.116 207.494C451.384 213.727 464.761 210.456 470.994 200.188Z" fill="white"/>
<path opacity="0.17" d="M466.084 182.237C465.691 182.238 465.307 182.114 464.99 181.881C464.673 181.648 464.44 181.32 464.324 180.944C463.556 178.488 461.844 176.437 459.564 175.242C457.285 174.047 454.624 173.806 452.168 174.573C451.701 174.718 451.195 174.673 450.762 174.446C450.329 174.219 450.003 173.829 449.857 173.362C449.711 172.896 449.757 172.39 449.984 171.957C450.211 171.523 450.601 171.198 451.067 171.052C454.458 169.994 458.13 170.325 461.276 171.974C464.422 173.622 466.785 176.453 467.844 179.844C467.987 180.308 467.94 180.81 467.713 181.24C467.486 181.67 467.098 181.992 466.634 182.136C466.456 182.196 466.271 182.23 466.084 182.237V182.237Z" fill="#50C6A1"/>
<path d="M444.638 164.071C439.723 165.607 435.374 168.566 432.141 172.573C428.907 176.58 426.935 181.456 426.472 186.584C426.01 191.712 427.079 196.863 429.543 201.384C432.008 205.904 435.757 209.593 440.318 211.983C444.879 214.373 450.046 215.357 455.166 214.811C460.286 214.264 465.129 212.212 469.082 208.913C473.036 205.614 475.923 201.217 477.377 196.278C478.832 191.339 478.79 186.079 477.256 181.164C475.197 174.572 470.603 169.068 464.486 165.863C458.37 162.657 451.23 162.013 444.638 164.071V164.071ZM458.889 209.689C454.784 210.968 450.392 211.002 446.267 209.786C442.143 208.571 438.472 206.16 435.717 202.859C432.962 199.558 431.248 195.514 430.79 191.239C430.333 186.963 431.153 182.648 433.146 178.839C435.14 175.03 438.218 171.896 441.992 169.836C445.765 167.775 450.065 166.879 454.348 167.26C458.63 167.642 462.704 169.285 466.053 171.98C469.403 174.676 471.878 178.304 473.167 182.406C474.02 185.134 474.328 188.003 474.073 190.849C473.817 193.695 473.003 196.463 471.677 198.995C470.351 201.527 468.539 203.772 466.345 205.603C464.15 207.434 461.617 208.814 458.889 209.666V209.689Z" fill="#D0DAED"/>
<path d="M462.081 212.244L457.754 213.596L463.909 233.298L468.236 231.946L462.081 212.244Z" fill="#D0DAED"/>
<path d="M477.113 268.012C476.457 268.217 475.767 268.291 475.082 268.229C474.397 268.167 473.731 267.971 473.121 267.652C472.512 267.333 471.972 266.897 471.531 266.368C471.091 265.84 470.759 265.231 470.554 264.574L461.093 234.289C460.981 233.941 460.94 233.573 460.971 233.208C461.003 232.843 461.107 232.488 461.278 232.164C461.449 231.84 461.683 231.553 461.966 231.321C462.249 231.088 462.576 230.915 462.927 230.81L467.621 229.344C467.969 229.231 468.337 229.19 468.702 229.221C469.067 229.253 469.422 229.358 469.746 229.528C470.07 229.699 470.357 229.933 470.589 230.216C470.822 230.499 470.995 230.826 471.1 231.177L480.56 261.462C480.972 262.787 480.84 264.222 480.193 265.45C479.547 266.679 478.439 267.6 477.113 268.012V268.012Z" fill="#34C4FF"/>
<path d="M478.942 254.71C478.942 254.71 469.192 248.7 466.254 245.593C463.316 242.485 462.069 241.073 462.826 240.413C463.582 239.753 471.81 243.374 472.607 242.765C473.405 242.155 472.708 240.638 473.602 239.95C474.496 239.263 479.804 244.736 481.06 244.318C482.316 243.901 480.404 253.743 478.942 254.71Z" fill="#FFAA9D"/>
<path d="M440.076 366.63L432.93 373.547L414.824 356.789L420.783 347.099L440.076 366.63Z" fill="#FFAA9D"/>
<path d="M433.97 372.53C433.97 372.53 428.988 378.777 428.048 378.786C427.109 378.796 406.207 356.18 406.344 355.451C406.482 354.722 415.608 355.506 415.608 355.506L433.97 372.53Z" fill="url(#paint2_linear_183_871)"/>
<path d="M419.676 346.086C419.676 346.086 440.61 367.969 441.416 367.969C442.223 367.969 542.111 291.27 542.111 291.27L499.767 272.476C499.767 272.476 446 287.268 419.676 346.086Z" fill="url(#paint3_linear_183_871)"/>
<path d="M514.495 352.646L518.038 361.937L495.505 371.984L488.945 362.693L514.495 352.646Z" fill="#FFAA9D"/>
<path d="M496.467 272.49C496.467 272.49 461.113 279.865 458.051 291.838C454.989 303.811 457.771 316.892 467.516 332.202C477.261 347.512 487.171 364.169 489.211 364.71C489.211 364.71 515.389 354.222 515.98 352.916C516.571 351.61 501.312 315.568 501.312 315.568C501.312 315.568 532.394 313.501 539.641 295.179L496.467 272.49Z" fill="url(#paint4_linear_183_871)"/>
<path d="M493.998 272.38C493.677 274.461 532.295 298.649 539.129 297.485C545.964 296.321 554.806 268.103 552.363 247.037C549.919 225.97 531.044 210.17 522.44 210.903C513.836 211.637 509.23 219.709 508.061 232.538C506.342 251.359 494.356 270.056 493.998 272.38Z" fill="url(#paint5_linear_183_871)"/>
<path d="M526.303 214.144C530.855 213.75 546.518 222.936 550.18 250.034C553.842 277.133 538.876 279.407 526.303 277.656C513.73 275.905 482.084 260.375 477.432 254.829C477.432 254.829 476.432 246.12 479.797 243.008C479.797 243.008 510.32 246.111 518.245 248.508C526.17 250.905 509.059 215.643 526.303 214.144Z" fill="url(#paint6_linear_183_871)"/>
<path d="M517.515 360.575C517.515 360.575 521.292 367.616 520.935 368.482C520.577 369.348 491.553 379.662 490.939 379.249C490.325 378.837 494.633 370.756 494.633 370.756L517.515 360.575Z" fill="url(#paint7_linear_183_871)"/>
<path d="M500.724 196.542L500.582 206.228L502.026 206.182C502.026 206.182 503.186 214.194 508.846 212.929C510.474 212.567 512.55 211.192 513.146 211.467C513.856 211.792 514.164 213.988 514.324 214.621C514.938 217.045 523.432 214.593 522.052 212.109C520.746 209.748 518.798 206.526 519.21 205.627C520.65 202.506 521.044 194.755 513.251 192.16C507.036 190.098 500.802 193.228 500.724 196.542Z" fill="#FFAA9D"/>
<path d="M522.055 212.109C520.748 209.748 518.8 206.526 519.213 205.627C519.213 205.627 515.935 210.669 512.91 211.43C512.995 211.419 513.082 211.429 513.162 211.458C513.873 211.783 514.18 213.979 514.34 214.611C514.941 217.045 523.434 214.593 522.055 212.109Z" fill="#FF9F91"/>
<path d="M513.825 201.291C517.492 200.668 515.2 208.795 519.225 208.524C523.249 208.254 526.045 199.467 523.098 192.692C520.151 185.917 514.536 186.275 509.191 187.219C503.846 188.163 497.273 190.561 497.273 194.603C497.273 204.335 508.792 196.171 509.553 199.095C510.144 201.36 511.047 207.901 508.701 208.052C506.354 208.203 503.97 206.269 502.118 206.764C501.05 207.053 498.112 219.809 505.785 220.236C513.376 220.657 515.297 213.961 513.697 208.488C512.198 203.285 512.047 201.598 513.825 201.291Z" fill="#14336A"/>
<defs>
<linearGradient id="paint0_linear_183_871" x1="334.597" y1="58.3938" x2="334.597" y2="228.757" gradientUnits="userSpaceOnUse">
<stop stop-color="#E9F3FC"/>
<stop offset="1" stop-color="white"/>
</linearGradient>
<linearGradient id="paint1_linear_183_871" x1="225.665" y1="325.299" x2="237.867" y2="392.671" gradientUnits="userSpaceOnUse">
<stop stop-color="#4250E8"/>
<stop offset="0.96" stop-color="#1F2CB7"/>
</linearGradient>
<linearGradient id="paint2_linear_183_871" x1="422.227" y1="364.3" x2="417.718" y2="369.883" gradientUnits="userSpaceOnUse">
<stop stop-color="#14336D"/>
<stop offset="0.97" stop-color="#0E2253"/>
</linearGradient>
<linearGradient id="paint3_linear_183_871" x1="158712" y1="88318.6" x2="165396" y2="81415" gradientUnits="userSpaceOnUse">
<stop stop-color="#14336D"/>
<stop offset="0.97" stop-color="#0E2253"/>
</linearGradient>
<linearGradient id="paint4_linear_183_871" x1="115126" y1="80429" x2="125295" y2="83740.2" gradientUnits="userSpaceOnUse">
<stop stop-color="#14336D"/>
<stop offset="0.97" stop-color="#0E2253"/>
</linearGradient>
<linearGradient id="paint5_linear_183_871" x1="83943.5" y1="58085.9" x2="90065.3" y2="65864.7" gradientUnits="userSpaceOnUse">
<stop stop-color="#4250E8"/>
<stop offset="0.96" stop-color="#101B93"/>
</linearGradient>
<linearGradient id="paint6_linear_183_871" x1="106434" y1="46442.6" x2="110436" y2="56132" gradientUnits="userSpaceOnUse">
<stop stop-color="#4250E8"/>
<stop offset="0.96" stop-color="#212EBC"/>
</linearGradient>
<linearGradient id="paint7_linear_183_871" x1="42340.8" y1="18672" x2="42439.8" y2="18970.9" gradientUnits="userSpaceOnUse">
<stop stop-color="#14336D"/>
<stop offset="0.97" stop-color="#0E2253"/>
</linearGradient>
</defs>
</svg>
