<svg width="40" height="40" viewBox="0 0 40 40" fill="none" xmlns="http://www.w3.org/2000/svg">
<circle cx="20" cy="20" r="20" fill="#DF0022"/>
<path d="M13.6523 17.6691C13.6523 16.9559 13.777 16.2822 14.0227 15.6533C14.2702 15.0236 14.6121 14.4708 15.0503 14.0015C15.4893 13.5322 15.988 13.126 16.5573 12.7832C17.1256 12.4385 17.7361 12.1818 18.3924 12.0095C19.046 11.8381 19.7124 11.7519 20.3953 11.7519C21.4394 11.7519 22.4111 11.9729 23.3122 12.4129C24.2096 12.852 24.9402 13.4918 25.5039 14.3324C26.0668 15.1711 26.3463 16.1199 26.3463 17.1777C26.3463 17.812 26.284 18.4326 26.1566 19.0395C26.0301 19.6472 25.8339 20.2339 25.5644 20.793C25.2931 21.3549 24.9649 21.8491 24.5726 22.2753C24.1821 22.7007 23.7045 23.0406 23.1353 23.2964C22.566 23.5503 21.9418 23.6786 21.2607 23.6786C20.8124 23.6786 20.3651 23.5733 19.9233 23.3615C19.4814 23.1507 19.1643 22.861 18.9736 22.4897C18.9067 22.7473 18.815 23.1195 18.6931 23.6062C18.5758 24.0921 18.4969 24.4057 18.4621 24.5477C18.4254 24.6889 18.3576 24.9245 18.2586 25.2508C18.1596 25.5771 18.0734 25.8136 18.001 25.9556C17.9286 26.0959 17.8241 26.3022 17.6857 26.5735C17.5463 26.8449 17.3923 27.1016 17.2292 27.3417C17.0633 27.5819 16.8579 27.8688 16.6132 28.1988L16.4766 28.2473L16.3858 28.1484C16.2878 27.1098 16.2373 26.4883 16.2373 26.2829C16.2373 25.6752 16.3098 24.9932 16.4528 24.236C16.593 23.4798 16.8148 22.5292 17.1128 21.3861C17.4107 20.2439 17.5812 19.5721 17.627 19.3731C17.4171 18.9451 17.3108 18.3859 17.3108 17.6984C17.3108 17.1493 17.4822 16.6351 17.8259 16.1511C18.1706 15.6689 18.606 15.4277 19.134 15.4277C19.5383 15.4277 19.8518 15.5617 20.0763 15.8302C20.3018 16.0979 20.4118 16.4352 20.4118 16.8468C20.4118 17.2832 20.267 17.9147 19.9755 18.7406C19.684 19.5674 19.5392 20.1843 19.5392 20.5941C19.5392 21.0093 19.6877 21.3568 19.9847 21.629C20.2817 21.9031 20.6438 22.0406 21.0654 22.0406C21.4284 22.0406 21.7648 21.9581 22.0774 21.7922C22.39 21.6281 22.6485 21.4027 22.8557 21.1203C23.0638 20.8352 23.2508 20.5217 23.4112 20.177C23.5734 19.8324 23.6999 19.4684 23.7879 19.0806C23.8759 18.6938 23.9438 18.3263 23.9859 17.9807C24.0308 17.6333 24.0501 17.3051 24.0501 16.9934C24.0501 15.8503 23.6871 14.9594 22.9657 14.3214C22.2406 13.6834 21.2964 13.3661 20.135 13.3661C18.8141 13.3661 17.7095 13.7933 16.8249 14.6504C15.9394 15.5047 15.4939 16.591 15.4939 17.9083C15.4939 18.1989 15.5379 18.4793 15.6213 18.7507C15.7029 19.0211 15.7918 19.2365 15.8881 19.396C15.9834 19.5527 16.0733 19.7059 16.1548 19.847C16.2373 19.9882 16.2804 20.089 16.2804 20.1495C16.2804 20.3347 16.2318 20.5758 16.1338 20.8737C16.032 21.1716 15.9119 21.3201 15.7671 21.3201C15.7533 21.3201 15.6965 21.31 15.5975 21.289C15.2602 21.19 14.9604 21.0048 14.7001 20.7344C14.4398 20.4631 14.2372 20.1496 14.096 19.7976C13.9558 19.4437 13.8476 19.0871 13.7733 18.7259C13.6863 18.3648 13.6523 18.0128 13.6523 17.6691Z" fill="white"/>
</svg>
