<svg width="40" height="40" viewBox="0 0 40 40" fill="none" xmlns="http://www.w3.org/2000/svg">
<circle cx="20" cy="20" r="20" fill="#00ACEE"/>
<path d="M26.9956 16.3306C27.0075 16.491 27.0075 16.6505 27.0075 16.81C27.0075 21.6912 23.2923 27.3159 16.5025 27.3159C14.4107 27.3159 12.4674 26.71 10.832 25.6577C11.129 25.6916 11.415 25.7035 11.7239 25.7035C13.45 25.7035 15.0386 25.1205 16.3082 24.1259C14.6848 24.092 13.3244 23.0287 12.8551 21.5657C13.0834 21.5996 13.3125 21.6225 13.5527 21.6225C13.8836 21.6225 14.2164 21.5767 14.5253 21.4969C12.8322 21.1541 11.5644 19.6682 11.5644 17.8733V17.8275C12.0567 18.1016 12.6278 18.273 13.2328 18.2959C12.2382 17.6341 11.5864 16.502 11.5864 15.2214C11.5864 14.5357 11.7689 13.9069 12.0888 13.3587C13.9065 15.5982 16.6391 17.0621 19.7026 17.2225C19.6458 16.9475 19.6109 16.6624 19.6109 16.3764C19.6109 14.3414 21.2573 12.6841 23.3033 12.6841C24.3666 12.6841 25.3264 13.1296 26.001 13.8501C26.8352 13.6897 27.6345 13.3807 28.344 12.9582C28.0699 13.8152 27.486 14.5357 26.7206 14.9932C27.464 14.9125 28.1845 14.7072 28.8464 14.4212C28.344 15.1527 27.7161 15.8044 26.9956 16.3306Z" fill="white"/>
</svg>
