<svg width="40" height="40" viewBox="0 0 40 40" fill="none" xmlns="http://www.w3.org/2000/svg">
<circle cx="20" cy="20" r="20" fill="#0E76A8"/>
<path d="M14.1515 15.9975C15.1585 15.9975 15.9748 15.1812 15.9748 14.1742C15.9748 13.1672 15.1585 12.3508 14.1515 12.3508C13.1445 12.3508 12.3281 13.1672 12.3281 14.1742C12.3281 15.1812 13.1445 15.9975 14.1515 15.9975Z" fill="white"/>
<path d="M17.6965 17.3791V27.495H20.8373V22.4925C20.8373 21.1725 21.0856 19.8942 22.7223 19.8942C24.3365 19.8942 24.3565 21.4033 24.3565 22.5758V27.4958H27.499V21.9483C27.499 19.2233 26.9123 17.1292 23.7273 17.1292C22.1981 17.1292 21.1731 17.9683 20.754 18.7625H20.7115V17.3791H17.6965V17.3791ZM12.5781 17.3791H15.724V27.495H12.5781V17.3791Z" fill="white"/>
</svg>
