<svg width="34" height="34" viewBox="0 0 34 34" fill="none" xmlns="http://www.w3.org/2000/svg">
<path d="M33.5781 12.2984C33.3631 11.6684 32.7948 11.2234 32.1315 11.1717L22.6298 10.4167L18.5181 1.31504C18.2498 0.716707 17.6548 0.333374 16.9998 0.333374C16.3448 0.333374 15.7498 0.716707 15.4815 1.31337L11.3698 10.4167L1.86814 11.1717C1.21647 11.2234 0.654802 11.6517 0.433135 12.2667C0.211469 12.8817 0.368135 13.57 0.836469 14.0267L7.85814 20.8717L5.3748 31.625C5.22147 32.29 5.4898 32.9817 6.05147 33.37C6.33814 33.5667 6.66814 33.6667 6.9998 33.6667C7.32147 33.6667 7.6448 33.5734 7.9248 33.3867L16.9998 27.3367L26.0748 33.3867C26.6548 33.7734 27.4165 33.7584 27.9831 33.3467C28.5465 32.935 28.7948 32.2134 28.6031 31.5434L25.5548 20.8767L33.1148 14.0734C33.6098 13.6267 33.7915 12.93 33.5781 12.2984Z" fill="#ffffff"/>
</svg>
